<svg xmlns="http://www.w3.org/2000/svg" width="1024" height="1024" viewBox="0 0 1024 1024"><path d="M0 0h1024v1024H0z"/><path fill="#dbd9d6" d="M706.171 174.745c1.356-1.252 11.429-10.327 12.055-10.182l.047.419c.395 4.124-1.834 11.293-2.763 15.501l-.478 1.999c-.191.821-.369 1.712-.644 2.507l-1.189-.864c.376-2.243 1.899-7.113 2.572-9.436l.522-1.993c.405-1.549.713-3.378 1.104-4.988l-1.276 1.472c-1.412 1.648-2.319 3.302-3.497 5.096l-.996 1.502c-1.633 2.396-3.437 4.65-5.001 6.999l-.52.763c-5.279 7.856-10.461 16.336-15.931 24.016-8.107 12.89-16.377 24.819-24.558 37.49a7041 7041 0 0 1-86.9 132.44l-36.242 54.287c-5.954 8.914-14.018 20.302-19.429 29.259 5.467 28.371 11.626 56.515 16.951 84.888 1.678 8.938 4.021 18.321 5.224 27.213 9.04 3.497 17.703 8.065 26.538 11.98 17.903 7.933 35.546 16.84 53.32 24.891l-.086 1.17c-26.988-10.335-54.65-19.952-81.844-30.355-5.968 4.449-21.737 13.33-28.709 17.631l-65.225 40.193-60.147 136.466c-9.882 22.107-20.347 43.979-29.589 66.362-.911 2.205-2.141 4.948-2.853 7.201l-.959-.169c15.716-51.949 30.636-104.161 50.536-154.717 7.746-19.681 15.036-39.471 22.493-59.263-3.057-1-6.778-1.938-9.922-2.673-16.909-3.953-33.904-9.08-50.886-12.54-1.129 15.736-2.977 32.208-4.395 47.996a4369 4369 0 0 1-8.237 89.881c-1.917 19.252-4.345 38.932-5.777 58.188-.269.954-.454 2.531-.782 3.232l-.476-.341-.18-.13c-.087-7.412-1.327-19.395-1.928-27.078q-2.146-27.629-4.708-55.223a5035 5035 0 0 0-16.174-156.49 4536 4536 0 0 0-8.035-61.346c-1.622-11.724-3.808-24.628-4.954-36.222 11.812 5.225 25.629 10.304 37.736 14.992l47.669 18.504c9.194 3.478 23.088 8.126 31.673 11.945-2.448-26.142 12.742-68.331 18.33-94.922-6.405 2.874-15.293 5.591-21.969 7.817a2746 2746 0 0 0-26.304 9.042l-47.857 16.37c-11.47 4.015-23.074 8.46-34.614 12.159l250.662-195.076a9197 9197 0 0 0 89.499-69.639c15.063-11.699 35.063-26.077 49.103-38.224"/><path d="M706.171 174.745c1.356-1.252 11.429-10.327 12.055-10.182l.047.419c.395 4.124-1.834 11.293-2.763 15.501l-.478 1.999c-.191.821-.369 1.712-.644 2.507l-1.189-.864c.376-2.243 1.899-7.113 2.572-9.436l.522-1.993c.405-1.549.713-3.378 1.104-4.988l-1.276 1.472c-1.412 1.648-2.319 3.302-3.497 5.096l-.996 1.502c-1.633 2.396-3.437 4.65-5.001 6.999l-.52.763c-5.279 7.856-10.461 16.336-15.931 24.016l-.515-1.174c-18.921 27.079-38.848 54.207-58.06 81.171L510.936 456.281c-19.724-6.899-44.807-16.737-63.843-24.855 22.84-21.357 45.759-44.597 68.098-66.607 36.136-35.605 73.309-71.087 109.121-106.946A5116 5116 0 0 1 680.53 201.7c8.441-8.361 17.334-17.583 25.972-25.614z"/><path fill="#5f6063" d="M715.32 167.567c1.097-.797 1.967-1.658 2.953-2.585.395 4.124-1.834 11.293-2.763 15.501l-.478 1.999c-.191.821-.369 1.712-.644 2.507l-1.189-.864c.376-2.243 1.899-7.113 2.572-9.436l.522-1.993c.405-1.549.713-3.378 1.104-4.988l-1.276 1.472c-1.412 1.648-2.319 3.302-3.497 5.096l-.996 1.502c-1.633 2.396-3.437 4.65-5.001 6.999l-.52.763c-5.279 7.856-10.461 16.336-15.931 24.016l-.515-1.174c.834-2.221 3.433-4.807 4.291-6.517 2.421-4.821 21.137-28.917 21.368-32.298"/><path fill="#929296" d="M706.171 174.745c1.356-1.252 11.429-10.327 12.055-10.182l.047.419c-.986.927-1.856 1.788-2.953 2.585-3.065 2.793-5.804 5.809-8.818 8.519z"/><path d="M429.321 527.218c8.407-.196 21.594-12.387 29.074-17.336 17.651-11.677 34.94-24.04 50.219-38.75 1.047-1.01 2.536-2.969 3.399-4.174l13.265 63.032c2.786 13.359 5.491 28.348 9.091 41.474.089.631.556 2.327.046 2.661-29.321 19.235-60.55 36.692-89.98 55.786-1.035-24.637-3.514-42.802-8.231-67.283-1.729-8.972-6.037-27.315-6.883-35.41"/><path d="M334.589 540.691c4.257 1.888 10.048 6 14.722 7.019 8.951 1.952 18.868 1.863 28.179 3.187 15.314 2.178 28.7 6.125 43.415 10.61-6.889 9.814-15.551 20.217-23.597 29.076-5.345 6.106-11.823 12.627-17.714 18.251-2.867 2.737-6.058 4.886-10.12 4.694-2.506-2.158-31.646-65.633-34.885-72.837"/><path fill="#dbd9d6" d="m713.199 184.125 1.189.864c-3.819 16.214-6.77 33.848-9.963 50.325l-11.137 54.749-38.981 194.658-15.555 76.805c-1.594 7.852-5.015 28.327-7 34.793l-.653-.345c-3.017-18.288-9.596-47.707-11.893-66.352-.499-4.054 8.334-33.566 10.235-40.431l19.273-70.054 42.093-153.433a7284 7284 0 0 0 22.392-81.579"/><path fill="#dbd9d6" d="M362.03 848.237a14572 14572 0 0 0 119.321-128.123 4930 4930 0 0 1 37.911-41.144c2.892-3.11 14.39-16.184 17.359-17.764 7.99-4.255 19.828-8.91 28.542-12.707l58.787-26.035c-22.707 21.113-50.449 44.139-74.092 64.477L415.178 803.58c-17.409 15.192-34.881 29.513-52.08 45.116z"/><path fill="#929296" d="M363.098 848.696c-1.051 1.056-9.713 9.124-10.258 9.051-.362-.631.467-2.502.862-3.144l.07.056c.118.408.159.699.561.885.609-.196 6.391-6.22 7.697-7.307z"/><path fill="#929296" d="M349.48 815.375c.011 3.44-.406 5.883-.583 9.256.028.647.101.936-.097 1.514-.997.363-.788-5.554-.781-5.913a67 67 0 0 1 .023-2.096l.18.13.476.341c.328-.701.513-2.278.782-3.232"/><path fill="#35363a" d="M348.019 820.232c.338 1.511.59 2.881.878 4.399.028.647.101.936-.097 1.514-.997.363-.788-5.554-.781-5.913"/><path fill="#929296" d="M625.08 610.004c2.395.736 5.282 2.121 7.587 3.171-3.144-.513-4.703-1.179-7.673-2.001z"/><path fill="#5f6063" d="m355.668 848.503.959.169c-.424.934-1.917 5.047-2.374 5.412l-.175-.087c-.212-.746 1.238-4.796 1.59-5.494"/><path fill="#929296" d="m631.099 595.974.653.345c-.022.635.13.802-.18 1.051-.427-.279-.421-.964-.473-1.396"/></svg>