<svg xmlns="http://www.w3.org/2000/svg" width="1024" height="1024" viewBox="0 0 1024 1024"><path fill="#1f1d1e" d="M386.249 957.554c9.336 3.685 52.659 17.367 57.594 21.041-1.55.814-57.49-15.378-64.967-15.949-15.726-1.201-17.7 1.993-24.73-14.61-2.864-6.764-6.257-13.849-9.101-20.034l-25.541-54.457-115.138-243.396-26.29-54.563c-4.856-10.015-10.145-20.32-14.399-30.595-.917-2.216-1.715-5.963-1.355-8.337.512-3.378 2.776-7.212 5.126-9.662 10.13-10.561 20.455-20.996 30.672-31.47l66.971-68.884A22209 22209 0 0 1 537.63 147.526l67.593-68.745c6.603-6.718 13.118-13.876 19.813-20.472 18.877-18.599 23.248 1.186 27.32 15.457q3.173 11.13 6.538 22.2l29.935 94.932 128.982 405.781 30.01 92.71c3.77 11.632 7.623 23.213 11.501 34.812 1.567 4.688 4.123 11.543 2.407 16.402-.771 2.185-3.106 6.196-5.005 7.545-9.892 7.026-21.761 10.923-32.569 16.562 4.315 1.603 31.523 11.26 33.354 12.909-.958.299-6.102-1.489-7.618-1.645-9.559-.981-27.51-5.926-36.428-5.26-5.364.401-24.349 9.014-29.197 11.546 6.815 3.314 17.798 6.942 25.195 9.504a932 932 0 0 1 25.179 9.116c-14.071-1.536-47.995-9.747-61.193-14.348-8.34 2.778-23.253 8.713-30.827 13.006 4.722 2.242 11.246 4.058 16.391 5.674a804 804 0 0 1 23.463 7.661c3.481 1.212 8.433 2.81 11.625 4.491l-.347.231c-12.573-2.693-24.477-5.141-36.976-8.504-7.887-2.123-15.007-3.489-22.809-6.375-9.722 3.502-22.257 9.519-31.582 14.108 17.142 6.089 33.719 11.608 50.901 17.421l-.974.954c-18.536-4.837-40.18-9.7-58.913-13.766a2172 2172 0 0 0-30.003 13.178c5.33 1.895 51.817 18.216 52.193 18.597-12.2-1.867-27.312-5.937-39.42-8.839-5.873-1.408-17.761-4.361-23.084-6.321-6.544 2.908-24.416 10.406-29.784 13.534 12.49 4.804 25.495 8.801 38.14 13.189 5.587 1.939 12.581 3.955 17.927 6.252-1.37.374-61.118-13.507-66.719-14.899-9.147 3.874-21.374 8.74-29.688 13.628 4.751 2.446 15.258 5.959 20.61 7.606 12.252 3.767 23.199 7.262 35.178 11.767-7.606-.947-22.556-4.516-30.399-6.297-10.414-2.365-26.349-5.324-36.127-8.602-8.496 3.507-21.028 9.165-29.098 13.329a872 872 0 0 1 41.072 14.247c3.74 1.363 9.389 3.095 12.838 4.486-2.228 1.102-57.248-12.664-64.324-14.805-7.074 3.106-23.258 9.738-29.409 13.101l38.146 13.555c3.672 1.301 15.99 5.52 18.522 6.987-2.807-.486-5.415-1.158-8.167-1.838-19.195-4.744-39.471-8.749-58.347-14.528-9.081 3.921-19.413 8.813-28.344 13.177a2079 2079 0 0 0 38.857 14.235l.33 2.483a2634 2634 0 0 1-49.316-12.215c-8.137 3.609-21.791 8.969-29.131 12.933 16.638 6.485 32.471 11.808 49.009 17.923l-.367 1.549c-17.66-4.187-35.199-9.044-52.892-13.116-2.235-.514-4.52-1.236-6.702-1.945-9.447 5.215-19.226 8.796-28.651 13.77m134.906-443.033c15.011 9.816 30.93 19.454 46.158 29.021l94.635 59.769 73.257 46.753c11.231 7.183 25.457 16.947 36.713 23.491l72.726 47.878c-7.559-20.392-14.5-44.661-21.008-65.613l-30.717-97.598-103.722-326.143a6357 6357 0 0 1-31.55-100.509l-8.669-27.893c-2.057-6.797-4.582-15.906-7.436-22.396-4.641 14.47-8.212 29.356-12.251 44.008l-26.862 98.367a19843 19843 0 0 1-81.274 290.865m-30.904 16.184c-27.27 1.677-53.734 1.723-80.847 2.534l-162.903 5.105-42.158 1.329c-8.743.229-19.64.287-28.217 1.018 3.966 11.67 10.071 23.246 15.564 34.349a1755 1755 0 0 1 18.139 37.464l67.988 143.915 19.565 41.308c3.492 7.302 8.529 17.145 11.571 24.497l37.927 80.278 11.966 26.236c1.815 3.955 4.94 11.098 7.179 14.631 11.863-34.76 22.883-70.254 34.162-105.25 33.09-102.673 70.059-204.552 101.384-307.748-4.041-.049-7.278.086-11.32.334M381.353 943.944c22.027-8.099 48.335-21.366 70.315-31.08l157.37-69.367c47.078-20.615 93.205-41.938 140.578-61.976a4784 4784 0 0 1 64.622-26.736c9.845-4.003 21.526-8.211 31.017-12.473-2.661-2.207-5.402-3.98-8.275-5.882-11.032-7.301-22.4-14.138-33.458-21.39a7430 7430 0 0 0-114.549-73.293l-129.694-82.066c-13.695-8.499-29.037-19.405-42.858-27.031-5.549 15.774-10.532 32.157-15.652 48.103L483.5 633.446l-51.819 155.712a8945 8945 0 0 0-33.351 99.038c-5.356 16.269-13.404 39.59-16.977 55.748M628.04 73.796c-12.898 11.522-23.804 23.712-35.773 36.053l-52.669 53.806a33475 33475 0 0 0-286.758 293.39c-7.85 8.108-60.177 59.7-62.968 65.761l.397.615 1.106.079 314.696-10.586c10.447-34.847 19.236-69.229 29.062-104.141l56.893-200.775a4698 4698 0 0 0 28.636-102.447l5.365-20.34c.83-3.087 2.505-7.998 2.759-10.92z"/><path fill="#1f1d1e" d="M642.743 134.897c1.613 2.257 7.101 21.634 8.275 25.444l22.066 72.159 90.441 291.287 35.3 109.168c5.639 17.156 13.142 37.397 17.875 54.505-6.776-4.204-14.52-10.102-21.105-14.832l-34.946-25.132-144.135-100.039-47.294-32.503c-7.083-4.912-16.214-10.921-22.781-16.132 1.466-6.787 4.107-15.26 5.994-22.185a2812 2812 0 0 0 10.231-38.753l12.691-50.675a5253 5253 0 0 1 25.875-96.1c14.186-51.654 26.83-105.155 41.513-156.212m155.781 520.331c-5.21-18.034-11.388-35.745-17.268-53.57a5395 5395 0 0 1-18.475-57.649c-15.246-48.192-29.597-97.71-45.31-145.452-9.514-.294-21.53-2.326-30.977-3.833l-40.096-6.438a2043 2043 0 0 1-40.424-6.444c-4.008-.698-13.625-2.226-17.353-3.324 9.565 16.931 205.762 274.193 209.903 276.71m-.737 10.76c-1.698-2.05-3.366-4.375-4.97-6.518a16517 16517 0 0 1-123.073-160.757l-62.215-82.678c-7.987-10.485-16.089-21.597-24.26-31.838-3.063 10.87-5.625 22.004-8.425 32.957-6.737 26.355-14.152 52.451-20.487 78.913 18.881 14.054 37.963 26.725 57.339 40.005l81.474 56.342 70.301 48.584a460 460 0 0 1 16.919 12.206c3.149 2.393 9.006 7.165 11.986 8.983zM590.286 372.707a3389 3389 0 0 0 41.085 7.679c5.189.807 10.363 1.762 15.52 2.753 23.465 4.507 47.186 8.043 70.242 14.431-5.672-18.39-10.887-36.976-16.916-55.258-.973-2.951-4.246-14.186-5.32-16.16l-.833-.207c-13.461 5.273-29.157 13.102-42.638 19.158l-38.17 17.411c-7.449 3.35-15.7 6.673-22.97 10.193m52.943-212.43-36.165 134.476-12.061 44.041c-2.546 9.313-5.686 19.944-7.472 29.353 12.359-5.955 23.455-10.152 35.933-15.369a4967 4967 0 0 1 71.234-28.045 8533 8533 0 0 1-33.587-108c-1.881-6.187-16.02-54.829-17.882-56.456"/><path fill="#fafaf9" fill-opacity=".012" d="M792.817 659.47c1.604 2.143 3.272 4.468 4.97 6.518l-5.411-3.801z"/><path fill="#1f1d1e" d="M527.103 561.221a2102 2102 0 0 0 55.178 34.594 9162 9162 0 0 0 149.534 89.454 4731 4731 0 0 1 56.716 34.794c5.94 3.663 20.219 13.125 25.778 15.692-10.718 5.318-25.028 11.11-36.242 16.083l-86.28 37.914-285.882 125.896c9.231-25.543 18.347-54.154 26.643-80.052a652 652 0 0 1 6.956-20.258c23.249-9.225 46.955-20.16 69.987-30.252l111.62-48.877 64.945-28.065c12.987-5.48 28.047-11.144 40.518-17.333a318 318 0 0 0-17.791-10.809c-27.209 11.806-55.005 22.655-82.207 34.555-24.867 10.879-49.613 22.068-74.402 33.126l-104.475 46.824 53.489-156.893c8.209-24.152 16.881-53.235 25.915-76.393m76.261 191.816c7.571 7.328 16.16 15.63 23.957 22.655l25.586 23.771c4.442-7.998 39.565-83.087 39.303-85.339a1048 1048 0 0 0-62.712 26.914c-7.973 3.735-18.602 7.95-26.134 11.999m-92.994 40.436c5.422 8.788 15.954 21.352 22.522 29.756 5.669 7.026 11.629 14.222 17.031 21.423 4.754-8.242 42.19-82.985 41.879-86.592a1222 1222 0 0 0-54.396 23.281c-8.555 3.833-18.677 8.075-27.036 12.132m192.077-83.909c5.316 6.55 10.099 13.942 14.849 20.939l20.141 29.688c2.437.305 4.062-1.539 5.187-3.539 7.504-13.348 17.038-28.337 23.446-42.076-4.04-2.714-29.938-18.856-33.005-19.164-7.333 4.625-21.811 9.677-30.618 14.152m-103.938 47.312c-9.558 24.364-23.476 47.866-34.135 71.796-1.622 3.643-3.314 7.62-5.056 11.182a1896 1896 0 0 1 32.97-14.877l34.176-14.789c4.891-2.108 14.035-5.79 18.493-8.273l-26.538-25.791c-6.122-6.05-13.451-13.866-19.91-19.248m-54.91 89.261a589 589 0 0 1-23.675-29.38c-2.006-2.656-13.204-18.357-14.659-19.518-4.805 12.819-9.347 25.703-14.215 38.524-5.13 13.509-10.913 27.3-15.555 40.932a2405 2405 0 0 1 26.135-11.853c12.147-5.25 30.826-12.737 41.969-18.705m155.627-129.835c-6.665 12.923-13.248 28.109-19.409 41.461-4.897 10.611-12.494 26.08-16.179 36.779l23.843-10.564c14.827-6.5 29.939-13.32 44.835-19.607-4.308-6.655-9.9-14.641-14.331-21.26-3.652-5.454-14.655-22.963-18.759-26.809M418.543 902.456c5.551-2.718 11.096-5.509 16.774-7.945 5.938-2.589 19.187-8.03 24.197-11.093a376 376 0 0 1-14.546-17.327c-3.166-4.015-7.116-9.511-10.458-13.192a2529 2529 0 0 0-15.967 49.557m353.817-184.68c-6.674 11.837-14.429 24.702-19.939 36.996a616 616 0 0 1 19.206-8.502c9.465-4.019 19.089-8.193 28.874-11.368-9.07-5.218-19.295-11.486-28.141-17.126M444.829 822.098a838 838 0 0 0-8.324 25.035c4.913 4.881 11.738 13.543 16.364 19.091 2.613 3.141 9.879 12.851 13.03 14.06 2.651-1.499 5.314-8.08 6.325-11.057 7.57-22.307 19.399-45.815 25.695-68.383q.293-1.054.558-2.116l-.445-.728a994 994 0 0 1-32.898 14.806c-6.18 2.69-14.521 6.068-20.305 9.292"/><path fill="#1f1d1e" d="M603.843 119.968c-.117 2.647-4.169 16.412-5.062 19.568a4426 4426 0 0 1-17.409 58.618l-54.344 182.353c-11.363 37.187-24.36 75.264-34.392 112.795-9.231.808-19.713 1.114-29.064 1.597l-54.976 2.961-184.86 11.673c-.162-1.938 8.461-10.387 10.2-12.182l166.392-169.447 137.755-140.866c21.839-22.285 43.697-45.032 65.76-67.07M251.413 501.03c13.78-.543 28.036-1.975 41.842-2.895l80.692-5.033c37.431-2.236 76.09-3.026 113.21-6.402 2.834-9.001 35.772-113.382 34.756-115.632l-.581-.116c-41.724 18.343-83.813 39.77-125.017 59.359l-95.644 45.796c-5.93 2.83-48.713 22.288-49.996 24.596zm338.404-358.064L461.044 276.072l24.171 31.12c3.142 4.03 8.88 11.877 12.157 15.447 8.757 11.208 19.471 25.306 28.802 35.812 4.804-13.384 9.253-28.671 13.431-42.329a6025 6025 0 0 0 26.63-90.371l16.324-54.248c2.488-8.473 5.999-19.491 7.662-27.949zM457.662 279.865a1309 1309 0 0 0-30.463 30.54c-3.776 3.85-9.957 9.522-13.171 13.296 24.271 8.107 48.864 17.444 73.09 25.182 11.272 3.622 21.546 6.749 32.464 11.441-8.292-12.56-20.167-26.453-29.391-38.437-4.199-5.456-30.758-41.587-32.529-42.022m-45.756 46.434a8669 8669 0 0 0-163.198 167.343c20.027-11.016 41.81-19.747 62.252-30.009a272 272 0 0 1 9.187-4.406l140.998-67.556a2482 2482 0 0 1 37.107-17.199c4.671-2.138 15-6.506 18.771-8.9-11.095-5.551-22.874-9.414-34.555-13.55a4721 4721 0 0 1-46.624-16.91c-6.766-2.473-17.583-6.042-23.938-8.813"/><path fill="#1f1d1e" d="m474.103 545.217 7.619-.148c-3.335 10.376-7.622 21.459-11.191 31.948l-30.759 90.767a3725 3725 0 0 1-27.425 79.956c-1.537 4.325-6.663 20.194-8.827 23.307l-.644-.015c-.306-4.041-10.561-25.001-12.892-30.771-15.67-38.795-33.848-76.364-51.441-114.284-10.628-22.908-19.429-45.278-31.481-67.622-4.58.033-9.642.337-14.256.516 9.522 21.296 21.199 43.468 31.165 65.252a2484 2484 0 0 1 67.468 161.509c4.835 12.201 8.742 16.067 4.648 28.899-9.789 30.68-20.073 61.663-28.475 92.756-6.267-10.465-14.631-30.29-20.206-42.165-12.885-27.442-25.35-55.248-38.424-82.627L241.346 641.21a3417 3417 0 0 1-28.04-58.782c-4.341-9.158-9.196-18.616-13.255-27.847 24.43.008 49.913-1.736 74.398-2.44zM277.888 698.552c6.947 14.685 14.504 30.186 21.045 45.005q4.668 10.005 9.513 19.924c3.922-23.695 8.974-47.252 13.293-70.865 2.293-12.537 5.746-27.239 6.557-39.687l-.358-.448c-13.135 10.872-25.515 22.465-37.725 34.356-3.758 3.66-8.819 8.096-12.325 11.715m-35.104-72.772a2212 2212 0 0 0 19.909 42.359l9.935 20.071c2.812-10.629 23.007-104.817 22.328-107.972-.066-.304-.312-.539-.468-.808-3.811 2.731-9.024 7.655-12.71 10.924a1179 1179 0 0 0-22.538 20.324c-5.013 4.663-11.276 10.886-16.456 15.102m89.212 188.983c2.707 5.615 6.228 13.332 9.686 18.355 2.459-12.929 19.993-102.359 18.58-107.197-15.566 14.7-32.085 32.087-47.473 45.99 5.703 13.523 12.702 29.671 19.207 42.852m-83.371-201.177c14.259-13.876 31.548-26.719 44.652-39.89-1.833-3.558-5.887-12.355-9.039-14.52l-2.38.035c-7.175.473-16.564 1.142-23.691.945-4.329 17.201-10.375 43.835-16.315 59.696zm-36.273-51.646a1478 1478 0 0 0 18.947 39.935c1.929 3.846 4.198 8.705 6.283 12.377 3.803-16.817 10.853-37.412 13.501-53.457l-5.254-.074c-9.546.381-24.631.169-33.477 1.219m80.318 115.554 34.203-30.32-17.05-39.638c-2.703-6.123-6.989-16.261-10.342-21.684-3.12 12.102-4.867 24.818-7.613 37.017-5.078 22.565-9.213 45.928-14.538 68.384zM392 805.032c-.651-1.354-1.813-4.025-2.648-5.109-15.022 14.349-28.612 30.371-43.651 43.987 4.721 10.549 10.197 21.431 15.252 31.869a670 670 0 0 1 5.275 11.177 3867 3867 0 0 1 15.688-48.717c2.845-8.617 8.462-24.705 10.084-33.207m-33.007-84.735c-6.354-16.493-17.602-43.893-25.26-59.297l-.681-1.672-.451.127-.452 1.96c-.776 3.354-1.38 7.637-1.871 11.068-4.401 30.796-12.041 61.247-16.931 91.911 15.208-15.797 30.232-28.843 45.646-44.097m29.003 74.418c-2.605-6.937-20.392-55.812-23.192-57.959-6.812 32.55-11.554 68.579-19.165 100.443 3.777-3.841 8.193-8.128 11.716-12.13 6.634-6.79 24.201-25.53 30.641-30.354"/><path fill="#fafaf9" fill-opacity=".027" d="m332.149 661.415.452-1.96.451-.127.681 1.672-.106 2.512z"/><path fill="#0b080d" fill-opacity=".98" d="M503.969 936.172c4.723 1.732 9.531 3.431 14.167 5.371-1.842.361-11.379-2.377-13.837-2.888z"/><path fill="#0b080d" fill-opacity=".929" d="M474.861 957.296c2.044.776 6.751 2.404 8.358 3.544-3.021-.625-5.738-1.198-8.725-1.995z"/><path fill="#0b080d" fill-opacity=".847" d="M753.286 834.245c1.534.458 4.526 1.099 5.501 2.058-2.629.044-3.953-.447-6.475-1.104z"/></svg>